<svg width="101" height="101" viewBox="0 0 101 101" fill="none" xmlns="http://www.w3.org/2000/svg">
<mask id="path-1-outside-1_1_12" maskUnits="userSpaceOnUse" x="8.41656" y="8.0721" width="84" height="84" fill="black">
<rect fill="white" x="8.41656" y="8.0721" width="84" height="84"/>
<path fill-rule="evenodd" clip-rule="evenodd" d="M75.5558 72.5012C80.8012 66.618 83.9888 58.8604 83.9888 50.3582C83.9888 31.9748 69.0861 17.0721 50.7027 17.0721C32.3193 17.0721 17.4166 31.9748 17.4166 50.3582C17.4166 68.7417 32.3193 83.6444 50.7027 83.6444C57.0264 83.6444 62.9383 81.8809 67.9734 78.819L77.3421 80.8286L75.5558 72.5012Z"/>
</mask>
<path d="M75.5558 72.5012L69.3492 66.9675L66.5402 70.1181L67.4255 74.2452L75.5558 72.5012ZM67.9734 78.819L69.7174 70.6886L66.481 69.9944L63.6528 71.7142L67.9734 78.819ZM77.3421 80.8286L75.5981 88.959L88.169 91.6555L85.4725 79.0846L77.3421 80.8286ZM75.6735 50.3582C75.6735 56.7418 73.289 62.5486 69.3492 66.9675L81.7625 78.0349C88.3134 70.6874 92.3041 60.9789 92.3041 50.3582H75.6735ZM50.7027 25.3874C64.4937 25.3874 75.6735 36.5672 75.6735 50.3582H92.3041C92.3041 27.3824 73.6785 8.75678 50.7027 8.75678V25.3874ZM25.7319 50.3582C25.7319 36.5672 36.9117 25.3874 50.7027 25.3874V8.75678C27.7269 8.75678 9.10125 27.3824 9.10125 50.3582H25.7319ZM50.7027 75.329C36.9117 75.329 25.7319 64.1492 25.7319 50.3582H9.10125C9.10125 73.3341 27.7269 91.9597 50.7027 91.9597V75.329ZM63.6528 71.7142C59.8829 74.0068 55.4599 75.329 50.7027 75.329V91.9597C58.593 91.9597 65.9937 89.755 72.2939 85.9237L63.6528 71.7142ZM66.2294 86.9493L75.5981 88.959L79.0861 72.6982L69.7174 70.6886L66.2294 86.9493ZM85.4725 79.0846L83.6862 70.7572L67.4255 74.2452L69.2117 82.5726L85.4725 79.0846Z" fill="black" mask="url(#path-1-outside-1_1_12)"/>
</svg>
