<svg width="101" height="100" viewBox="0 0 101 100" fill="none" xmlns="http://www.w3.org/2000/svg">
<path fill-rule="evenodd" clip-rule="evenodd" d="M8.53149 33.2612C8.53149 19.484 19.7002 8.31531 33.4774 8.31531H66.7387C80.516 8.31531 91.6847 19.484 91.6847 33.2613V66.5225C91.6847 80.2998 80.516 91.4685 66.7387 91.4685H33.4774C19.7002 91.4685 8.53149 80.2998 8.53149 66.5225V33.2612ZM17.3707 29.1036H36.8056L30.0702 16.98C23.8717 18.2705 18.9387 23.0116 17.3707 29.1036ZM57.5939 29.1036H46.318L39.3885 16.6306H50.6644L57.5939 29.1036ZM67.1063 29.1036H82.8454C80.9992 21.9307 74.4879 16.6306 66.7387 16.6306H60.1768L67.1063 29.1036ZM83.3693 37.4189H16.8468V66.5225C16.8468 75.7074 24.2926 83.1531 33.4774 83.1531H66.7387C75.9235 83.1531 83.3693 75.7074 83.3693 66.5225V37.4189ZM60.8672 58.5995C61.6747 58.115 61.6747 56.9448 60.8672 56.4604L43.7506 46.1904C42.9192 45.6916 41.8615 46.2904 41.8615 47.2599V67.7999C41.8615 68.7695 42.9192 69.3683 43.7506 68.8695L60.8672 58.5995Z" fill="black"/>
</svg>
