<svg width="101" height="100" viewBox="0 0 101 100" fill="none" xmlns="http://www.w3.org/2000/svg">
<path fill-rule="evenodd" clip-rule="evenodd" d="M32.5079 16.8867C32.4083 17.1047 32.3125 17.3247 32.2206 17.5465C31.4272 19.4618 30.9377 21.4857 30.7666 23.5451H19.5196C15.1949 23.5451 11.5922 26.8601 11.233 31.1698L8.05045 69.3606C7.04045 81.4806 16.605 91.8753 28.7669 91.8753H72.6384C84.8004 91.8753 94.3649 81.4806 93.3549 69.3606L90.1724 31.1698C89.8132 26.8601 86.2105 23.5451 81.8858 23.5451H70.639C70.4678 21.4857 69.9783 19.4618 69.185 17.5465C69.0931 17.3247 68.9973 17.1047 68.8977 16.8867C67.9071 14.7192 66.5363 12.7443 64.8484 11.0564C62.9908 9.19877 60.7855 7.72521 58.3583 6.71987C55.9312 5.71453 53.3299 5.19708 50.7028 5.19708C48.0757 5.19708 45.4743 5.71453 43.0472 6.71987C40.6201 7.72521 38.4148 9.19877 36.5571 11.0564C34.8693 12.7443 33.4985 14.7192 32.5079 16.8867ZM63.3334 23.5451H38.0721C38.2169 22.4417 38.5059 21.3596 38.9336 20.3271C39.5738 18.7815 40.5121 17.3772 41.695 16.1943C42.8779 15.0114 44.2823 14.073 45.8278 13.4328C47.3734 12.7927 49.0299 12.4632 50.7028 12.4632C52.3757 12.4632 54.0322 12.7927 55.5777 13.4328C57.1233 14.073 58.5276 15.0114 59.7105 16.1943C60.8934 17.3772 61.8318 18.7815 62.472 20.3271C62.8997 21.3596 63.1887 22.4417 63.3334 23.5451ZM81.8858 31.8604H19.5196L16.337 70.0511C15.731 77.3231 21.4697 83.5599 28.7669 83.5599H72.6384C79.9356 83.5599 85.6743 77.3231 85.0683 70.0511L81.8858 31.8604ZM41.695 49.2135C40.5292 48.0476 39.6009 46.6667 38.9615 45.1474L38.9336 45.0807C38.7585 44.658 38.6067 44.227 38.4784 43.7897C38.3515 43.3568 38.1735 42.9375 37.9508 42.5474C37.1833 41.2024 35.8862 40.2057 34.3308 40.2057C32.3244 40.2057 30.6644 41.8454 31.0268 43.8188C31.1515 44.4981 31.3114 45.1707 31.5059 45.834C31.7072 46.5208 31.9457 47.1975 32.2206 47.8613C32.2483 47.9281 32.2763 47.9948 32.3047 48.0613C33.3074 50.4096 34.7507 52.5449 36.5571 54.3514C38.4148 56.209 40.6201 57.6825 43.0472 58.6879C45.4743 59.6932 48.0757 60.2107 50.7028 60.2107C53.3299 60.2107 55.9312 59.6932 58.3583 58.6879C60.7855 57.6825 62.9908 56.209 64.8484 54.3514C66.6549 52.5449 68.0981 50.4096 69.1008 48.0613C69.1292 47.9948 69.1573 47.9281 69.185 47.8613C69.4599 47.1975 69.6983 46.5208 69.8997 45.834C70.0942 45.1707 70.254 44.4981 70.3787 43.8188C70.7411 41.8454 69.0812 40.2057 67.0747 40.2057C65.5193 40.2057 64.2223 41.2024 63.4547 42.5474C63.2321 42.9375 63.054 43.3568 62.9271 43.7897C62.7989 44.2271 62.647 44.658 62.472 45.0807L62.4441 45.1474C61.8047 46.6667 60.8764 48.0476 59.7105 49.2135C58.5276 50.3964 57.1233 51.3347 55.5777 51.9749C54.0322 52.6151 52.3757 52.9446 50.7028 52.9446C49.0299 52.9446 47.3734 52.6151 45.8278 51.9749C44.2823 51.3347 42.8779 50.3964 41.695 49.2135Z" fill="black"/>
</svg>
